<svg version="1.1" viewBox="0 0 800.91 734.49" xmlns="http://www.w3.org/2000/svg"><g transform="translate(-7.6985 -40.203)"><path d="m696.22 772.78c-33.163-9.2136-77.148-37.959-114.7-74.958-11.198-11.034-11.198-11.034-18-10.157-93.294 12.026-199.73-22.681-259.07-84.475-13.612-14.176-14.107-13.211 6.4155-12.497 209.49 7.2891 381.86-101.54 402.42-254.09 0.70429-5.225 1.4185-9.6807 1.5871-9.9015 0.16862-0.22082 3.1259 1.3137 6.5718 3.4101 123.36 75.051 114.06 247.14-17.118 316.53-11.176 5.9128-2.3324 55.978 17.768 100.59 9.4314 20.932-1.9732 32.185-25.885 25.541zm-594.62-140.09c-13.072-5.9363-13.733-16.361-2.2893-36.128 21.288-36.772 34.905-72.199 34.905-90.808 0-5.933 0-5.933-10.25-11.928-115.92-67.796-152.58-226.64-76.021-329.39 149.87-201.14 561.47-146.43 605.18 80.439 33.018 171.35-138.93 312.95-354.31 291.77-12.557-1.2347-12.557-1.2347-20.832 6.3604-54.019 49.579-153.41 100.11-176.39 89.677zm77.422-77.837c15.529-10.882 33.627-25.036 43.928-34.355 43.012-38.911 40.484-37.794 76.266-33.708 287.54 32.836 428.88-260.57 178-369.49-178.6-77.539-413.22 11.242-419.67 158.8-3.5428 81.085 37.496 148.74 112.92 186.15 13.156 6.525 13.75 6.9512 13.75 9.8598 0 23.598-5.4687 54.13-14.373 80.244-4.1822 12.266-4.5966 12.153 9.1788 2.5zm5.3846-209.27c-30.995-8.1198-48.236-40.724-37.172-70.295 20.154-53.867 103.07-42.35 106.7 14.82 2.3731 37.447-32.408 65.199-69.525 55.475zm153.31 1.3765c-51.867-10.802-63.412-75.8-17.784-100.12 45.686-24.35 95.028 23.486 72.997 70.768-8.9399 19.186-35.705 33.414-55.213 29.351zm139.5-0.91808c-23.989-5.195-42-27.32-42-51.594 0-48.975 59.111-72.355 92.654-36.648 35.337 37.616-0.0186 99.208-50.654 88.242z" fill="#d9230f" fill-opacity=".03"/></g></svg>
