<svg version="1.1" viewBox="0 0 168.84 168.68" xmlns="http://www.w3.org/2000/svg"><g transform="translate(-6.7975 -18.107)"><path d="m15.736 184.78c-11.872-6.3088-11.872-37.988 0-44.297 4.9324-2.6211 25.844-2.6886 30.996-0.10006 11.883 5.9701 11.883 38.527 0 44.497-5.1521 2.5885-26.063 2.521-30.996-0.10006zm60 0c-7.3145-3.8869-10.07-13.356-8.4841-29.152 1.3715-13.657 6.0872-16.997 24-16.997 20.547 0 23.5 3.0153 23.5 24s-2.9525 24-23.5 24c-9.7886 0-12.681-0.34514-15.516-1.8516zm60 0c-6.8999-3.6666-7.9844-6.675-7.9844-22.148 0-20.985 2.9525-24 23.5-24s23.5 3.0153 23.5 24-2.9525 24-23.5 24c-9.7886 0-12.681-0.34514-15.516-1.8516zm-117.48-58.881c-13.793-3.4536-15.729-38.394-2.5156-45.416 5.0688-2.6936 25.962-2.6936 31.031 0 11.872 6.309 11.847 38.427-0.03554 44.397-3.4077 1.7121-22.923 2.4102-28.48 1.0188zm57.5-1.0634c-12.436-6.7763-12.447-37.746-0.0156-44.352 5.0688-2.6936 25.962-2.6936 31.031 0 11.043 5.8684 11.982 36.858 1.3283 43.844-4.2858 2.8104-27.451 3.1744-32.344 0.5082zm62.5 1.1112c-13.822-3.7911-15.733-38.905-2.4801-45.563 5.0088-2.5165 25.951-2.5165 30.96 0 11.046 5.5499 12.021 36.957 1.3635 43.944-2.7748 1.8193-24.764 3.0125-29.844 1.6194zm-122.52-61.167c-11.885-6.3154-11.873-37.874 0.0156-44.352 4.8931-2.6662 28.058-2.3022 32.344 0.5082 10.657 6.9883 9.6822 38.394-1.3639 43.944-5.1521 2.5885-26.063 2.521-30.996-0.10006zm60 0c-7.2607-3.8583-10.258-14.177-8.5364-29.391 1.5677-13.857 5.1253-16.257 24.096-16.257 21.421 0 23.446 2.0385 23.452 23.602 6e-3 20.868-2.9729 23.898-23.496 23.898-9.7886 0-12.681-0.34514-15.516-1.8516zm60.036 0.10006c-11.046-5.5498-12.021-36.956-1.3639-43.944 8.3738-5.4911 33.35-2.4778 38.074 4.5935 6.3074 9.4416 2.5461 35.182-5.75 39.351-5.0088 2.5165-25.951 2.5165-30.96 0z" fill="#d9230f"/></g></svg>
