<svg version="1.1" viewBox="0 0 222.6 148.8" xmlns="http://www.w3.org/2000/svg"><g transform="translate(-4.373 -30.51)"><path d="m47.523 178.24c-57.304-10.943-57.627-97.21-0.40789-109.03 5.8499-1.2083 6.0601-1.3688 10.464-7.9938 32.351-48.664 106.44-37.378 124.76 19.002 2.1192 6.5243 2.1192 6.5243 8.2083 7.7593 48.226 9.7816 48.702 80.089 0.61171 90.301-6.6 1.4015-136.27 1.3652-143.63-0.0402zm143.68-18.825c30.684-11.481 21.126-52.716-12.687-54.733-9.2679-0.55293-9.2679-0.55293-11.391-10.665-10.951-52.143-72.25-62.824-97.831-17.046-4.5071 8.0655-4.5071 8.0655-12.854 9.0996-41.806 5.1795-48.046 61.43-8.1956 73.884 7.9276 2.4776 136.19 1.9934 142.96-0.53969zm-89.245-31.51c0-14.5 0-14.5-11.24-14.5h-11.24l35.959-36 35.548 35.5-11.014 0.28275c-11.014 0.28275-11.014 0.28275-11.014 14.75s0 14.467-13.5 14.467-13.5 0-13.5-14.5z" fill="#fff"/></g></svg>
