<svg version="1.1" viewBox="0 0 479.05 585.08" xmlns="http://www.w3.org/2000/svg"><defs><filter id="a" x="-.010269" y="-.00837" width="1.0248" height="1.0202" color-interpolation-filters="sRGB"><feFlood flood-color="rgb(0,0,0)" flood-opacity=".49804" result="flood"/><feComposite in="flood" in2="SourceGraphic" operator="in" result="composite1"/><feGaussianBlur in="composite1" result="blur" stdDeviation="2"/><feOffset dx="2" dy="2" result="offset"/><feComposite in="SourceGraphic" in2="offset" result="composite2"/></filter></defs><g transform="translate(-14.257 -3.9042)"><path d="m211.15 581.67c-48.054-4.1729-96.752-22.107-117.63-43.319-16.348-16.612-18.01-22.237-23.92-80.997-4.923-48.947-15.533-153.22-19.892-195.5-2.2117-21.45-4.5045-43.95-5.0952-50-1.4889-15.248-1.2721-14.664-8.3515-22.524-14.811-16.445-20.628-46.259-15.214-77.976 6.1404-35.973 44.624-63.357 111.5-79.337 16.457-3.9328 15.531-4.3669 12.458 5.8372-1.3249 4.4-3.0343 12.441-3.7987 17.868-1.7166 12.188-0.0203 10.761-21.058 17.717-126.03 41.67-51.932 109.7 122.67 112.63 188.9 3.1704 280.9-73.391 137.74-114.63-15.391-4.4331-13.981-2.7295-15.793-19.086-0.57871-5.225-1.9671-12.158-3.0853-15.407-3.0455-8.8477-3.258-8.6429 6.7169-6.4713 42.181 9.1833 83.467 28.287 100.08 46.305 15.337 16.639 18.72 28.544 17.922 63.073-0.65646 28.406-2.2617 33.271-16.878 51.159-5.8814 7.1977-5.8814 7.1977-7.3537 21.519-4.2497 41.34-9.8962 96.634-12.491 122.32-18.536 183.48-17.921 179.25-28.263 194.33-18.167 26.499-69.198 47.589-126.16 52.139-11.674 0.93252-74.381 1.1909-84.105 0.34651zm51.185-56.406c11.169-5.4068 10.323 4.9039 10.245-124.89-0.0754-124.79-0.36957-136.64-3.478-140.08-7.4184-8.1972-26.882-7.3083-32.526 1.4855-3.7653 5.866-3.917 249.02-0.15978 256.21 4.2742 8.1769 16.79 11.686 25.919 7.2666zm104.54-18.052c10.382-5.2184 13.153-10.912 15.79-32.449 6.8418-55.87 24.29-226.98 23.443-229.91-0.15926-0.5506-0.56424-2.2526-0.89993-3.7821-1.9437-8.8561-17.419-8.919-28.225-0.11468-8.5447 6.9614-9.0167 9.1749-16.29 76.396-1.1604 10.725-2.9946 27.375-4.0761 37-2.651 23.594-11.543 113.04-12.986 130.63-1.005 12.25-0.95655 14.518 0.36471 17.073 4.0285 7.7902 13.427 9.9095 22.879 5.1587zm-209.26 0.66196c8.369-4.3278 8.5215-6.7376 3.5211-55.628-21.813-213.28-20.216-201.9-29.538-210.32-8.3152-7.5123-19.043-10.114-24.621-5.972-5.5878 4.1497-5.8714 5.5768-4.484 22.566 3.21 39.309 22.774 223.69 24.722 232.99 2.5614 12.232 20.116 21.681 30.4 16.363zm21.008-394.99c-11.027-3.5551-12.362-10.002-10.176-49.143 1.6265-29.133 14.722-46.151 40.707-52.901 15.394-3.9988 87.454-1.9711 97.243 2.7364 25.878 12.445 33.697 29.073 33.077 70.344-0.4119 27.446-2.1336 29.842-21.387 29.765-17.275-0.0685-19.05-2.955-19.881-32.33-0.91208-32.232-0.79607-32.175-62.552-30.703-25.922 0.61782-25.527 0.14355-26.242 31.533-0.54789 24.045-0.70834 24.588-8.5601 28.975-5.3127 2.9685-15.835 3.7841-22.228 1.723z" fill="#fff" filter="url(#a)"/></g></svg>
