<svg version="1.1" viewBox="0 0 403.34 403.58" xmlns="http://www.w3.org/2000/svg"><g transform="translate(-13.432 -10.223)"><path d="m197.45 412.99c-158.26-14.048-239.19-199.52-141.76-324.89 98.66-126.94 299.65-92.795 350.56 59.561 45.92 137.44-64.784 278.11-208.8 265.33zm6.9283-20.137c-0.0223-6.1781-0.38498-6.3841-12.506-7.1035-16.925-1.0046-40.232-5.0925-55.334-9.7053-16.232-4.9577-3.0431 4.0709 15.855 10.854 27.918 10.021 52.009 12.78 51.985 5.9546zm47.34 1.1838c22.493-4.5838 47.675-14.61 47.675-18.981 0-0.36579-4.5148 0.60236-10.033 2.1515-13.28 3.7281-37.574 7.7357-52.467 8.6551-12 0.7408-12 0.7408-12.308 6.1428-0.34759 6.1056 5.1295 6.5157 27.132 2.0319zm-48.974-37.184c-0.62337-27.011 0.0294-24.75-7.1457-24.75-15.41 0-48.606-4.9134-68.076-10.076-13.55-3.5929-12.165-4.7143-10.589 8.5762 4.2556 35.871 4.9921 36.682 39.46 43.456 45.801 9.001 46.946 8.5758 46.351-17.206zm44.226 21.171c14-1.383 34.172-5.1037 46.924-8.6547 11.279-3.1409 14.308-9.4343 17.912-37.209 1.9216-14.811 3.6288-13.446-11.912-9.5249-20.965 5.2896-49.381 9.4447-64.856 9.4833-8.8042 0.022-8.3041-1.3434-8.8781 24.235-0.58086 25.883-2.4222 23.966 20.81 21.671zm97.01-32.564c17.782-17.336 31.319-36.711 40.981-58.655 1.8884-4.2891 3.4335-8.0298 3.4335-8.3126s-3.0375 2.068-6.75 5.224c-11.342 9.6423-36.755 24.714-46.857 27.79-1.7568 0.53488-2.2043 1.678-2.6893 6.8695-0.85445 9.1453-3.4508 21.039-6.7746 31.035-1.6107 4.8438-2.9286 9.237-2.9286 9.7626 0 2.5565 14.059-6.3746 21.586-13.713zm-240.25 4.0224c-3.1903-9.1566-7.3329-28.621-7.3329-34.454 0-2.5004-1.0363-3.2267-12.537-8.7862-13.934-6.7358-25.94-14.305-34.898-22.002-7.4827-6.4293-7.6115-6.2092-2.7775 4.745 13.364 30.285 46.699 69.019 60.305 70.073 0.3259 0.0252-0.91593-4.2836-2.7596-9.5753zm98.667-63.36c0-32.981 0-32.981-2.25-33.437-1.2375-0.25085-7.2693-0.71478-13.404-1.031-18.398-0.94825-40.344-4.2116-58.204-8.6552-4.597-1.1437-8.7259-1.7006-9.1753-1.2376-2.9272 3.0156-6.0301 62.712-3.3331 64.124 8.7993 4.6065 57.7 12.867 77.617 13.111 8.75 0.10724 8.75 0.10724 8.75-32.874zm61.5 30.47c16.133-2.1521 37.426-6.4827 47.25-9.6098 3.25-1.0345 3.25-1.0345 3.2352-8.707-0.0255-13.176-3.381-55.501-4.5166-56.97-0.12641-0.16352-3.996 0.60599-8.5992 1.71-19.01 4.5594-38.974 7.5929-56.737 8.621-20.305 1.1752-18.132-2.9799-18.132 34.679 0 36.575-1.3771 35.463 37.5 30.277zm82.825-22.823c16.649-7.9464 29.441-16.229 39.425-25.527 3.25-3.0268 3.25-3.0268 3.25-15.011 0-14.366-4.2404-45.381-6.5604-47.984-0.17406-0.1953-2.8353 1.6967-5.9139 4.2045-10.345 8.4272-40.718 24.601-46.276 24.641-1.5896 0.0117-1.5536 2.4443 0.19392 13.102 1.6903 10.309 4.0169 44.036 3.2421 46.999-1.5623 5.9742-0.71008 5.9455 12.639-0.42594zm-251.32-9.9166c5e-3 -7.8375 0.65408-19.65 1.4429-26.25s1.7406-14.534 2.1151-17.632c0.68091-5.6318 0.68091-5.6318-4.8684-7.7081-13.012-4.8684-30.095-14.316-40.551-22.427-7.5953-5.8918-7.3791-6.0591-10.038 7.7671-6.6083 34.369-5.949 45.523 3.1401 53.123 12.52 10.468 24.166 17.711 38.646 24.033 10.817 4.7228 10.103 5.4923 10.113-10.905zm304.76-77.482c-0.38707-22.097-0.94695-23.724-5.5926-16.251-3.1576 5.0795-3.1576 5.0795-0.17753 19.781 1.639 8.0859 2.984 16.802 2.9888 19.37 5e-3 2.5675 0.33524 5.4925 0.73435 6.5 1.4298 3.6092 2.3849-10.109 2.047-29.4zm-196.4 1.9821c0.37152-15.262 0.95514-31.688 1.2969-36.5 0.62146-8.75 0.62146-8.75-5.8483-8.75-12.209 0-51.82-5.145-58.067-7.5423-0.90029-0.34547-1.7098 0.1424-2.0505 1.2357-5.5828 17.917-7.1012 22.963-8.8026 29.256-2.1954 8.1202-8.9306 38.376-8.601 38.638 2.3247 1.8494 40.496 8.6274 57.704 10.246 25.555 2.4043 23.611 4.5245 24.369-26.584zm59.131 25.163c11.724-1.4098 30.935-4.9497 40.719-7.5029 4.3422-1.1331 4.411 0.85744-0.77448-22.41-5.5438-24.875-12.788-49.024-14.407-48.023-3.1909 1.9721-40.603 6.8321-60.037 7.7991-4.4552 0.22168-4.499 0.25873-4.3979 3.7239 0.0562 1.925 0.4281 17.675 0.82655 35s0.92694 32.13 1.1744 32.901c0.53695 1.6717 15.711 1.0598 36.897-1.4879zm-230.53-9.4147c0.62074-4.6741 2.221-13.099 3.5562-18.723 2.4486-10.313-1.7216-26.373-4.7336-18.231-1.8811 5.085-2.1356 47.637-0.27383 45.775 0.17745-0.17745 0.83051-4.1469 1.4512-8.821zm73.43-16.114c3.2497-13.178 10.136-34.834 15.057-47.346 4.0297-10.248 4.4095-9.3726-5.618-12.947-8.9786-3.2005-20.604-9.004-28.393-14.174-3.0382-2.0166-5.6572-3.4979-5.8202-3.2916-7.6672 9.7047-24.229 41.946-28.609 55.692-1.5669 4.918-1.3752 5.1684 9.9889 13.046 9.4786 6.5705 35.227 19.462 40.077 20.065 0.31731 0.0395 1.8104-4.9303 3.318-11.044zm232.55 6.5932c15.455-6.5235 40.052-21.386 40.052-24.2 0-3.9006-16.098-38.031-23.491-49.806-2.0622-3.2842-4.3872-6.9938-5.1668-8.2435-1.4174-2.2722-1.4174-2.2722-5.8371 0.76869-7.14 4.9125-20.317 11.441-30.195 14.96-9.1899 3.274-9.1899 3.274-7.0691 8.4086 4.446 10.764 13.433 38.637 16.246 50.385 1.613 6.7375 3.341 12.25 3.8398 12.25 0.49891 0 5.7286-2.0351 11.622-4.5225zm54.129-41.267c5.0186-8.8925-4.321-36.081-21.466-62.489-5.0505-7.7793-5.0505-7.7793-6.6823-2.7736-1.3794 4.2313-3.9371 8.7003-8.3089 14.518-0.57482 0.7649 1.3512 4.4427 5.5527 10.603 9.144 13.407 19.909 34 24.201 46.295 0.90247 2.5853 2.7063 0.92961 6.7032-6.1525zm-346.13-0.96015c4.8337-11.633 13.419-27.5 21.159-39.102 6.9052-10.352 6.9052-10.352 4.0181-14-3.198-4.041-6.1196-10.376-6.1196-13.27 0-11.203-22.459 31.394-28.839 54.697-2.0576 7.5159-2.1378 7.0292 2.5022 15.175 3.2203 5.6536 3.5399 5.4999 7.2794-3.5zm159.52-25.5c0.22005-0.6875 0.88402-10.25 1.4755-21.25s1.3653-24.612 1.7196-30.25c0.64418-10.25 0.64418-10.25-6.2569-10.283-6.3137-0.0299-9.8858-0.38423-25.04-2.4836-5.1392-0.71194-5.1392-0.71194-9.4522 6.6522-7.4262 12.68-23.735 49.371-22.496 50.61 1.9079 1.9079 35.453 6.8688 51.088 7.5553 3.85 0.16905 7.3516 0.3955 7.7814 0.50322 0.42977 0.10772 0.96143-0.36664 1.1815-1.0541zm43.037-0.81615c16.281-1.5746 34.5-5.0414 34.5-6.5646 0-3.9699-20.763-49.323-25.529-55.762-1.3138-1.7752-1.8848-1.8136-9.1861-0.61675-4.2819 0.70188-12.51 1.5537-18.285 1.8929-5.946 0.34925-10.491 1.0505-10.479 1.6168 0.15363 7.3556 2.7018 55.825 3.0582 58.171 0.53963 3.5512 1.6867 3.6071 25.921 1.2633zm-111.5-22.184c7.3837-14.374 13.247-24.306 20.644-34.968 6.5516-9.443 6.5497-9.2371 0.10472-11.31-2.8875-0.92864-8.4805-3.2786-12.429-5.2221-7.1788-3.5337-7.1788-3.5337-12.063 0.35807-14.036 11.184-42.258 40.41-42.258 43.762 0 3.1016 31.562 19.091 38.604 19.557 0.60734 0.0402 3.9358-5.4394 7.3967-12.177zm171.18 9.1845c8.5219-3.1405 23.395-10.58 27.765-13.888 3.2392-2.4519-0.78392-7.8803-20.442-27.583-22.146-22.196-23.55-23.034-31.858-19-3.7664 1.829-9.3902 4.111-12.497 5.0711-3.1072 0.96011-5.78 1.8505-5.9396 1.9787s3.6889 6.3322 8.5522 13.787c4.8632 7.4545 12.194 20.104 16.29 28.11s7.9796 14.564 8.6296 14.573c0.64998 9e-3 4.925-1.3633 9.5-3.0493zm-185.68-58.868c5.5-4.064 10.404-7.7434 10.899-8.1764 0.50244-0.44016-0.46786-2.3437-2.2007-4.3172-1.7046-1.9415-3.3988-5.1259-3.7647-7.0765-1.1047-5.8886-25.226 7.791-42.17 23.916-13.199 12.561-13.792 15.076-6.2265 26.406 3.9704 5.9457 3.9704 5.9457 18.717-8.7081 8.1105-8.0596 19.246-17.979 24.746-22.043zm225.83 33.684c9.014-12.042 8.7953-16.056-1.4394-26.426-13.927-14.112-44.892-33.028-44.892-27.424 0 1.0447-1.5483 4.2003-3.4406 7.0123-3.4406 5.1128-3.4406 5.1128 2.25 9.3051 3.1299 2.3058 8.1656 6.1654 11.191 8.5771 6.5175 5.196 29.764 27.944 31.123 30.456 1.3542 2.5026 2.4471 2.1878 5.2076-1.5zm-138.29-34c0.1374-0.87156 3.9377-37.38 3.9479-37.927 0.0471-2.5146-4.179-0.81626-8.9873 3.6117-10.331 9.5142-26.249 29.65-24.679 31.219 1.3079 1.3079 29.537 4.2484 29.718 3.0957zm27.76-1.1548c5.6649-0.74883 10.56-1.6214 10.878-1.9392 1.0194-1.0194-10.906-16.817-19.677-26.066-13.539-14.277-1.87-5.4381 14.807 11.216 15.149 15.127 12.944 14.489 27.443 7.945 8.4835-3.8294 8.8353-3.058-5.001-10.965-10.919-6.2394-16.849-9.1726-28.249-13.972-2.9041-1.2227-3.4715-1.6829-1.5998-1.2975 4.8586 1.0004 20.439 7.4446 32.947 13.628 14.027 6.9336 12.945 6.791 16.116 2.124 5.1263-7.544-0.77485-10.929-29.964-17.189-4.95-1.0615-7.9947-1.9636-6.7659-2.0046 2.9828-0.0994 24.134 4.4267 32.214 6.8936 6.6809 2.0396 8.8956 1.8533 5.7048-0.47985-10.453-7.6436-71.653-18.741-71.653-12.993 0 0.925 0.93185 1.5049 2.4182 1.5049 3.4291 0 5.5818 0.99187 5.5818 2.5718 0 1.5138-3.6065 3.7894-4.8184 3.0404-2.8428-1.7569-3.5 1.3182-2.3612 11.049 0.63326 5.4113 1.4473 14.001 1.809 19.089 0.75762 10.657 0.28587 10.474 20.17 7.8452zm-60.953-8.8313c7.5961-8.5486 16.148-16.566 24.549-23.015 7.3906-5.6733 7.7749-6.1515 6-7.467-2.3285-1.7257 0.23531-4.2818 4.2947-4.2818 1.3996 0 2.3089-0.59886 2.3089-1.5207 0-2.7679-26.512-0.62912-43.06 3.4736-12.473 3.0927-28.94 9.0794-28.94 10.522 0 0.93078 1.4918 0.75535 5.75-0.67617 6.5888-2.215 28.268-6.835 31.551-6.7238 1.2094 0.041-1.851 0.94076-6.801 1.9995-14.039 3.0029-31.5 8.7622-31.5 10.39 0 10.163 4.7405 11.467 17.65 4.854 12.1-6.1978 31.048-13.953 31.931-13.07 0.26966 0.26965-2.1134 1.543-5.2956 2.8298-12.302 4.9742-34.584 17.631-33.662 19.122 0.93945 1.5201 17.244 8.5979 20.224 8.7789 0.19098 0.0116 2.441-2.3352 5-5.2151z" fill="#d9230f" fill-opacity=".08"/></g></svg>
