<svg version="1.1" viewBox="0 0 105.55 73.669" xmlns="http://www.w3.org/2000/svg"><g transform="translate(-18.243 -10.346)"><path d="m61.5 83.52c-28.384-4.1866-51.128-30.074-40.664-46.283 24.203-37.487 80.701-35.372 101.37 3.7936 10.095 19.133-29.787 47.049-60.702 42.489zm23.145-11.008c16.8-5.2558 32.295-20.672 28.589-28.443-14.89-31.225-66.503-32.414-84.36-1.9441-9.7619 16.657 30.149 38.403 55.771 30.387zm-19.75-4.1062c-8.8306-2.0778-16.33-11.782-16.373-21.188-0.0919-20.018 24.327-29.65 38.175-15.059 14.836 15.632-0.56901 41.243-21.802 36.247zm12.656-9.7903c12.037-7.3201 6.689-25.115-7.5478-25.115-12.84 0-18.006 17.995-7.1604 24.944 4.0319 2.583 10.617 2.6597 14.708 0.17146z" fill="#d9230f"/></g></svg>
