<svg version="1.1" viewBox="0 0 510.32 383.84" xmlns="http://www.w3.org/2000/svg"><g transform="translate(12.741 -54.128)"><path d="m81.585 436.89c-114.19-16.655-129.41-184.11-19.72-216.97 3.8419-1.151 3.8419-1.151 4.448-12.287 3.6051-66.237 71.57-119.46 132.67-103.89 4.4819 1.1422 4.4827 1.1419 7.399-2.5536 75.182-95.272 232.77-35.499 227.39 86.252-0.49687 11.26-0.49687 11.26 7.6147 16.602 96.354 63.456 62.234 214.87-52.388 232.48-10.845 1.6662-296.17 2.0048-307.42 0.36477zm311.37-33.701c90.539-24.204 98.047-151.12 10.786-182.34-5.6976-2.0381-8.6712-3.5983-8.3672-4.3902 42.839-111.64-122.31-184.59-174.94-77.28-2.7831 5.6747-2.7831 5.6747-7.3596 3.3623-65.354-33.021-135.44 33.125-108.62 102.5 0.51229 1.3248-0.33302 1.49-5.8335 1.1397-25.15-1.6014-55.336 15.541-69.455 39.444-28.227 47.786 0.97974 109.99 55.992 119.26 13.622 2.2938 298.74 0.721 307.79-1.6979zm-167.94-30.727c-12.062-2.1819-26.912-7.8487-33.473-12.773-1.7803-1.3362 7.7964-16.437 16.557-26.108 0.48739-0.53802 3.6843 0.40194 7.7662 2.2834 39.463 18.19 85.239-8.3124 89.804-51.993 0.60882-5.8249 0.60882-5.8249-15.467-6.1003s-16.075-0.27544 7.6102-31.983c13.027-17.439 23.911-31.708 24.186-31.708s11.159 14.269 24.186 31.708c23.686 31.708 23.686 31.708 7.75 31.983-15.936 0.27477-15.936 0.27477-15.936 4.119 0 55.573-56.423 100.8-112.98 90.572zm-87.202-62.258c-23.686-31.708-23.686-31.708-7.75-31.983 15.936-0.27477 15.936-0.27477 15.936-4.119 0-69.939 91.892-118.75 146.46-77.799 1.7803 1.3362-7.7964 16.437-16.557 26.108-0.48739 0.53802-3.6843-0.40194-7.7662-2.2834-39.463-18.19-85.239 8.3124-89.804 51.993-0.60882 5.8249-0.60882 5.8249 15.467 6.1003s16.075 0.27544-7.6102 31.983c-13.027 17.439-23.911 31.708-24.186 31.708s-11.159-14.269-24.186-31.708z" fill="#fff"/></g></svg>
