<svg version="1.1" viewBox="0 0 238.97 166.49" xmlns="http://www.w3.org/2000/svg"><g transform="translate(-17.469 -18.399)"><path d="m151.08 183.09c-1.6978-1.8761-1.6363-2.5076 1.5349-15.75l3.3037-13.796 36.051-36.259c39.147-39.373 40.466-40.423 48.174-38.347 6.5972 1.7764 15.552 11.683 16.146 17.86 0.70786 7.3669 0.41127 7.7253-38.435 46.443l-35.815 35.697-12.192 3.0526c-14.313 3.5839-16.407 3.7064-18.767 1.0982zm19.947-6.6249 8.9886-2.4114 26.78-26.755c14.729-14.715 26.659-27.291 26.511-27.948-0.30269-1.3425-16.654-18.307-17.645-18.307-0.35066 0-12.835 12.262-27.742 27.25l-27.104 27.25-2.6388 10.083c-4.3095 16.467-5.2328 15.689 12.85 10.837zm74.763-68.258c7.5679-8.0907 7.3261-12.844-1.0275-20.197-6.8823-6.0581-10.86-5.4734-19.474 2.8623-6.0569 5.8616-6.2434 5.1321 3.9224 15.345 9.809 9.8547 9.281 9.7913 16.579 1.9894zm-209.75 52.907c-6.8945-1.6889-12.487-6.2187-16.136-13.07-2.6771-5.0264-3.4258-106.29-0.84325-114.06 1.8762-5.6488 8.2251-11.994 14.063-14.055 5.7397-2.0261 178.02-2.0509 183.75-0.02643 11.556 4.0848 15.641 12.38 15.654 31.787 0.01 14.461-0.22771 15.357-4.072 15.357-0.51399 0-0.91821-6.1773-0.91821-14.032 0-18.232-1.6958-22.729-10.21-27.074-5.9844-3.0543-178.83-2.9363-184.83 0.12616-9.6379 4.9169-9.4613 3.7227-9.4613 63.98 0 73.458-7.5497 65.947 66.316 65.978 52.316 0.022 52.316 0.022 52 2.772-0.31642 2.75-0.31642 2.75-51.316 2.9022-28.05 0.0837-52.35-0.1785-54-0.5827zm19.75-48.101c-2.9961-1.2043-2.8438-2.7926 0.38548-4.0204 4.2635-1.621 101.92-0.80174 103.57 0.86883 1.0676 1.0823 0.95306 1.5729-0.64177 2.75-2.2623 1.6698-99.216 2.0466-103.31 0.40152zm-1.25-36.469c-3.7099-4.4702-3.2424-4.5 70.5-4.5 60.34 0 69.415 0.19309 70.5 1.5 3.7099 4.4702 3.2424 4.5-70.5 4.5-60.34 0-69.415-0.19309-70.5-1.5z" fill="#ffffff"/></g></svg>
