<svg version="1.1" viewBox="0 0 390.26 381.66" xmlns="http://www.w3.org/2000/svg"><g transform="translate(-234.69 -41.864)"><path d="m407.5 422.88c-116.38-11.008-195.43-122.8-167.4-236.72 31.52-128.11 182.02-185.88 292.25-112.17 12.684 8.4819 12.405 6.241 1.9045 15.275-4.8125 4.1405-11.027 9.5595-13.809 12.042-5.0589 4.5139-5.0589 4.5139-12-0.0217-85.559-55.907-204.48-10.195-232.43 89.342-31.962 113.83 70.627 220.3 185.81 192.84 83.506-19.909 136.73-108.14 114.17-189.28-2.0323-7.3099-2.0323-7.3099 11.165-21.75 15.529-16.991 13.92-16.397 17.687-6.5331 49.711 130.18-57.797 270.17-197.34 256.97zm-7-67.755c-5.3981-3.3641-37.622-36.996-81.5-85.06-27.296-29.9-28.623-31.855-27.458-40.427 2.7702-20.379 35.502-53.597 52.845-53.631 3.6974-7e-3 22.463 18.649 44.054 43.797 12.041 14.025 15.282 17.245 17.109 17 1.5208-0.20384 10.538-9.7402 27.707-29.302 26.339-30.01 35.756-39.392 83.243-82.939 28.267-25.922 71.338-59.978 77.383-61.187 9.4731-1.8946 27.259 20.002 31.164 38.367 1.897 8.9206 0.85807 10.566-19.446 30.794-42.14 41.984-112.26 125-162.56 192.47-24.291 32.578-30.989 37.321-42.54 30.123z" fill="#fff"/><path d="m397.3 421.44c-127.1-18.536-199.55-156.5-143.34-272.94 49.434-102.41 181.07-138.37 276.45-75.515 12.837 8.4604 12.899 8.5568 8.0011 12.426-2.1499 1.6986-8.0451 6.8008-13.1 11.338-10.763 9.6604-9.0615 9.2169-16.744 4.3652-103.44-65.326-237.98 8.953-237.98 131.38 0 138.64 166.42 207.57 264.45 109.54 39.545-39.545 55.388-96.768 41.079-148.37-1.8779-6.7723-1.8779-6.7723 4.6711-13.97 12.078-13.275 20.368-21.875 20.733-21.509 1.0502 1.0502 6.7959 18.212 8.915 26.628 33.407 132.68-77.975 256.34-213.14 236.63zm5.6988-65.09c-5.7583-1.0977-104.33-106.26-109.53-116.85-7.015-14.296 13.758-46.216 38.743-59.533 13.821-7.3667 16.701-5.3448 54.528 38.284 21.067 24.298 15.604 25.095 42.809-6.2502 49.783-57.361 151.04-148 165.33-148 15.329 0 36.316 37.231 28.299 50.202-1.1234 1.8177-6.1847 7.1035-11.247 11.746-33.141 30.392-114.35 126.02-171.54 202-21.541 28.618-24.498 30.864-37.397 28.405z" fill="#d9230f"/></g></svg>
