<svg version="1.1" viewBox="0 0 80 90.095" xmlns="http://www.w3.org/2000/svg"><g transform="translate(-10.558 -12.935)"><path d="m21.572 101.21c-5.9157-3.0089-5.983-3.4579-5.9992-40.023-0.01474-33.25-0.01474-33.25-2.5147-33.25-2.3333 0-2.5-0.33333-2.5-5 0-5 0-5 12.5-5s12.5 0 12.5-2.5 0-2.5 15-2.5 15 0 15 2.5 0 2.5 12.5 2.5 12.5 0 12.5 5c0 4.6667-0.16667 5-2.5 5-2.5 0-2.5 0-2.5997 32.75-0.10922 35.884-0.18892 36.629-4.2452 39.66-4.0448 3.0223-53.976 3.745-59.641 0.8633zm53.986-40.773v-32.5h-50v65h50zm-39.769 0.25c0.26913-22.25 0.26913-22.25 5.0191-22.555 4.75-0.30479 4.75-0.30479 4.75 22.25 0 22.555 0 22.555-5.0191 22.555-5.0191 0-5.0191 0-4.75-22.25zm19.769-0.30479c0-22.555 0-22.555 4.75-22.25 7.7312 0.49609 7.9974 44.805 0.26913 44.805-5.0191 0-5.0191 0-5.0191-22.555z" fill="#fff"/></g></svg>
