<svg version="1.1" viewBox="0 0 800.11 800.11" xmlns="http://www.w3.org/2000/svg"><g transform="translate(-1.8505 -20.592)"><path d="m601.99 819.56c-134.53-15.172-205.61-170.21-128.87-281.1 83.389-120.5 268.32-96.505 318.2 41.291 44.832 123.85-58.378 254.58-189.33 239.81zm50.182-117.67 0.26445-30.75 61.5-0.5289v-60.942l-61.5-0.5289-0.5289-61.5h-60.971v62h-62v60.971l61.5 0.5289 0.5289 61.5h60.942zm-569.42 30.672c-38.562-5.6568-67.881-32.515-78.511-71.922-2.1255-7.8795-3.4022-538.74-1.339-556.78 4.8916-42.765 38.548-76.836 81.182-82.182 11.595-1.4539 568.17-1.4464 579.77 0.0078 37.899 4.7521 69.218 32.448 79.309 70.133 2.1954 8.1991 4.3233 340.82 2.1803 340.82-0.35205 0-7.4498-3.3932-15.773-7.5403-8.323-4.1472-22.108-9.9236-30.633-12.836l-15.5-5.2961-0.5-150.91c-0.5687-171.65 0.42876-155.35-10.084-164.8-9.3078-8.3685 20.343-7.6153-299.34-7.6043-319.4 0.0109-289.81-0.80932-299.44 8.3009-9.9614 9.4229-9.1268-16.617-9.1276 284.76-8.96e-4 306.24-0.97619 275.1 8.9251 285 9.7432 9.7432-5.0165 8.9259 161.19 8.9259 87.47 0 145.99 0.36731 146.33 0.91846 0.3122 0.50516 1.2494 4.8927 2.0827 9.75 2.1786 12.699 5.1558 24.186 9.6758 37.332 2.1748 6.325 4.1952 12.288 4.4897 13.25 0.58637 1.9164-302 2.5622-314.88 0.67201zm64.518-153.77c-17.255-5.9629-21.641-15.687-21.153-46.904 0.59256-37.955 7.3226-44.245 47.339-44.245 39.704 0 45.845 6.4769 45.297 47.776-0.39967 30.155-4.1437 37.893-21.101 43.611-7.2407 2.4416-43.119 2.2725-50.383-0.23754zm155 0c-17.364-6.0004-21.616-15.424-21.15-46.868 0.36311-24.508 1.015-27.121 8.756-35.097 8.7864-9.0538 5.2148-8.6484 78.886-8.9542l65.325-0.27118-4.4346 5.7712c-15.251 19.848-28.854 45.981-36.958 71l-5.2567 16.229-40-0.0117c-35.785-0.0104-40.544-0.19984-45.168-1.7975zm-153.97-154.24c-17.154-4.9717-22.666-16.814-22.187-47.666 0.57991-37.321 6.8593-43.524 44.606-44.064 41.694-0.59698 48.223 5.665 48.206 46.229-0.0127 30.117-3.7439 38.613-19.557 44.529-6.0098 2.2486-44.159 2.9746-51.069 0.97193zm155.64 0.15393c-18.258-5.5739-22.5-14.165-22.5-45.565 0-30.625 4.1673-39.663 20.682-44.856 10.616-3.3378 295.89-1.9043 302.32 1.5192 13.802 7.3525 16.895 14.351 17.329 39.202 0.44407 25.43 1.5621 23.202-12.062 24.046-31.925 1.9781-60.754 9.1212-87.664 21.721l-10.397 4.8681-102.6-0.086c-56.431-0.0473-103.73-0.42941-105.1-0.84918zm-2.2836-155.59c-16.269-5.9718-20.716-15.625-20.716-44.968 0-27.887 3.3934-36.129 17.786-43.196 8.98-4.4098 296.4-4.4346 305.37-0.0264 14.692 7.2152 17.339 13.813 17.339 43.22 0 29.929-4.291 39.493-20.143 44.894-6.6458 2.2644-293.48 2.3376-299.64 0.0764zm-155.48-2.1381c-15.468-5.4741-19.733-15.164-19.733-44.832 0-40.203 5.8597-46 46.5-46 39.875 0 46.008 6.2578 45.99 46.928-0.0127 28.698-2.6672 35.257-17.212 42.525-7.2616 3.6286-46.439 4.6013-55.544 1.379z" fill="#d9230f" fill-opacity=".91822"/></g></svg>
