<svg version="1.1" viewBox="0 0 524.52 358.19" xmlns="http://www.w3.org/2000/svg"><g transform="translate(-23.062 -58.196)"><path d="m267.64 58.234c-55.717 1.2523-109.97 33.205-133.22 90.008-3.2492 7.9375-3.25 7.9359-16.129 8.3066-119.39 3.4367-130.07 179.41-11.879 195.85 1.65 0.22954 37.732 0.484 80.182 0.5664 83.316 0.16174 79.931 1.7166 78.1-35.85-0.0939-1.925-0.13875-10.7-0.0976-19.5 0.0412-8.8 0.0395-17.8-4e-3 -20-0.0434-2.2-0.0419-10.975 2e-3 -19.5 0.0438-8.525 0.061-17.3 0.0391-19.5-0.10468-10.504 0.27375-13.568 2.1191-17.186 19.751-38.715 165.95-38.822 184.5-0.13477 2.5508 5.32 2.551 5.3202 2.5664 66.195 0.0173 68.675-0.68288 62.54 6.8594 60.209 65.818-20.34 102.53-92.63 80.502-158.54-20.103-60.164-86.438-96.62-147.07-80.824-9.305 2.4242-9.305 2.4237-19.5-7.6777-30.038-29.762-68.846-43.277-106.97-42.42zm85.773 148.18c-84.183 1.8438-104.79 38.941-27 48.6 4.95 0.61461 10.35 1.2992 12 1.5215 8.8753 1.1959 47.529-0.29558 58.5-2.2578 77.811-13.917 45.194-49.806-43.5-47.863zm86.133 40.682c-0.33193-0.0249-0.73246 0.37304-1.2129 1.1504-1.2324 1.994-16.661 8.6482-24.92 10.748-42.999 10.933-105.3 6.7233-130.56-8.8223-5.766-3.5479-8.0227 19.106-2.6856 26.957 5.7532 8.4632 29.789 16.498 56.363 18.84 46.186 4.0708 93.306-5.1914 102.42-20.133 1.6792-2.7541 1.9638-5.0647 1.9668-15.971 3e-3 -8.8198-0.36752-12.695-1.3633-12.77zm-159.59 40.654c-4.311 0.0191-3.2707 25.507 1.7949 30.326 8.8768 8.4443 28.541 14.386 57.66 17.422 43.45 4.5295 98.217-8.3771 101.04-23.811 2.6466-14.482-0.10601-25.411-5.5371-21.982-31.489 19.881-125.22 18.904-154.02-1.6055-0.33534-0.23879-0.6462-0.35088-0.93359-0.34961zm159.61 38.32c-0.32216-0.0465-0.71062 0.32007-1.1719 1.0664-12.885 20.849-122.34 22.132-155.49 1.8223-7.6679-4.6988-7.3258 24.627 0.35547 30.475 10.307 7.8467 30.666 13.493 56.41 15.646 31.259 2.6144 69.879-2.2608 87.445-11.039 12.484-6.2385 13.789-8.6406 13.789-25.377 0-8.5845-0.37532-12.454-1.3418-12.594zm-160.26 41.768c-1.4018 0.37699-1.4024 3.6328-1.4024 12.316 0 21.276 12.97 29.7 52.299 33.965 8.55 0.92724 13.142 1.0942 15.701 2.2715h26.232c1.9369-1.2764 5.4601-1.2668 12.199-1.7832 16.252-1.2452 36.665-6.5626 46.068-12 13.48-7.7947 16.744-39.756 3.3262-32.564-35.464 19.007-118.28 18.828-150.08-0.32422-2.1532-1.2966-3.4988-2.1071-4.3398-1.8809z" fill="#fff"/></g></svg>
