<svg version="1.1" viewBox="0 0 191.29 168.75" xmlns="http://www.w3.org/2000/svg"><g transform="translate(-28.771 -6.5433)"><path d="m131.8 172.93c-11.607-2.6421-19.585-6.9914-33.5-18.262-9.8047-7.9417-9.4966-6.4297-9.4984-46.618-2e-3 -40.65-0.78444-37.415 11.564-47.813 12.781-10.763 18.187-19.211 24.369-38.084 4.3882-13.397 9.8599-17.308 20.959-14.98 16.528 3.4669 18.413 20.818 5.121 47.149-3.0427 6.0275-3.0427 6.0275 25.504 6.0275 23.545 0 29.198 0.27208 32.264 1.553 15.488 6.4698 15.247 27.07-0.38732 33.04-4.2368 1.6181-4.2368 1.6181-2.3196 4.7624 5.0992 8.3626 0.74761 21.32-8.3252 24.788-3.0574 1.169-3.1912 1.7268-1.7017 7.0903 1.9216 6.9191-2.2728 15.762-9.1674 19.327-2.4738 1.2793-2.8809 2.0773-2.8809 5.6484 0 15.478-23.466 22.866-52 16.37zm-96.622-1.0173c-6.583-2.8651-6.3783-1.1944-6.3783-52.063 0-57.613-1.821-53.503 23.7-53.496 25.338 6e-3 23.8-3.4193 23.8 52.996 0 48.49-0.0608 49.152-4.7768 52.027-4.0656 2.4789-30.969 2.8755-36.345 0.5358z" fill="#d9230f"/></g></svg>
