<svg version="1.1" viewBox="0 0 192.44 169.04" xmlns="http://www.w3.org/2000/svg"><g transform="translate(-27.416 -19.918)"><path d="m129.69 186.16c-12.15-3.2379-41.347-20.922-41.347-25.044 0-4.3079 3.0879-3.1967 17.453 6.2803 32.866 21.683 73.547 21.028 73.547-1.1831 0-3.09 0.44242-4.1052 2.0054-4.6012 7.2924-2.3145 11.058-10.295 8.4643-17.936-1.8683-5.503-1.74-5.7692 4.1576-8.6242 7.9982-3.8718 10.567-13.644 5.4685-20.804-2.5377-3.5638-1.3982-5.2963 4.6006-6.9946 11.761-3.3298 13.072-20.226 1.9774-25.49-2.9826-1.4153-7.611-1.6495-32.606-1.6495-34.51 0-32.477 1.0733-25.257-13.338 11.266-22.485 11.169-34.831-0.30727-39.214-10.275-3.9239-15.656 0.0838-20.208 15.05-6.3986 21.037-36.429 51.599-40.045 40.753-0.20268-0.60804 3.9095-4.3069 9.1382-8.2198 14.264-10.674 18.362-16.356 25.093-34.788 6.7529-18.493 13.036-23.005 26.737-19.199 15.766 4.3786 18.121 22.154 6.1231 46.206-3.3672 6.75-3.3672 6.75 22.402 6.75 28.682 0 30.996 0.36341 36.492 5.7309 9.4317 9.2098 8.0547 23.894-2.8895 30.811-3.1748 2.0067-4.2449 3.2472-3.7778 4.3788 3.1106 7.535 0.63394 17.037-5.8978 22.628-4.0322 3.4514-4.1744 3.7769-4.2626 9.7606-0.10901 7.3894-1.8904 11.235-7.3825 15.936-3.0084 2.5751-4.0262 4.19-4.0262 6.3885 0 15.706-27.676 23.867-55.653 16.412zm-92.847 0.1873c-9.3729-2.187-9.715-4.2274-9.3262-55.623 0.41359-54.666-1.5688-50.61 24.738-50.61 25.42 0 24.106-2.9093 24.031 53.218-0.0749 56.135 1.1688 53.219-22.766 53.382-8.0728 0.055-15.578-0.11009-16.678-0.36676zm30.929-5.8046c0.86429-0.86428 1.5935-2.3268 1.6204-3.25 0.0487-1.668 0.0267-84.604-0.023-86.857-0.10056-4.5553-28.582-6.843-33.197-2.6664-2.6831 2.4282-2.8467 89.563-0.17375 92.516 2.311 2.5536 29.259 2.7718 31.774 0.25731z" fill="#d9230f"/></g></svg>
