<svg version="1.1" viewBox="0 0 278.9 423.01" xmlns="http://www.w3.org/2000/svg"><g transform="translate(-14.285 -15.467)"><path d="m133.07 436.9c-34.776-9.5893-47.058-52.598-22.403-78.447 27.212-28.529 73.214-14.637 81.2 24.522 6.6391 32.556-26.401 62.858-58.797 53.925zm1.4568-129.59c-18.26-3.6126-31.049-23.099-28.835-43.934 2.7342-25.727 15.262-42.338 54.925-72.824 34.717-26.685 45.818-42.921 44.239-64.701-2.0477-28.243-20.845-43.465-53.673-43.465-29.456 0-40.84 7.9967-57.017 40.053-13.241 26.238-20.048 32.474-37.597 34.443-50.142 5.6242-57.566-55.692-12.157-100.4 37.273-36.694 95.806-49.892 155.27-35.012 60.131 15.047 93.5 53.542 93.5 107.86 0 40.343-18.16 66.136-75.122 106.7-24.926 17.75-28.867 22.421-37.265 44.166-8.8204 22.839-23.725 31.573-46.269 27.113z" fill="#d9230f"/></g></svg>
