<svg version="1.1" viewBox="0 0 191.07 190.59" xmlns="http://www.w3.org/2000/svg"><g transform="translate(-18.541 -10.582)"><path d="m189.08 200.02c-1.1-0.46942-10.55-9.4712-21-20.004-28.851-29.079-27.177-27.959-35.348-23.665-77.131 40.531-152.83-59.885-92.123-122.2 61.03-62.646 163.93 10.862 124.48 88.927-4.3339 8.577-4.3339 8.577 18.597 31.839 12.612 12.794 23.647 24.647 24.522 26.339 5.7377 11.096-7.2509 23.835-19.132 18.765zm-78.218-66.098c33.044-11.041 44.252-52.092 21.217-77.712-33.223-36.952-93.076-6.8659-83.549 41.998 5.2958 27.162 35.733 44.602 62.332 35.714z" fill="#d9230f" fill-opacity=".32944"/></g></svg>
